<svg width="24" height="24" viewBox="0 0 24 24" fill="none" xmlns="http://www.w3.org/2000/svg">
<path d="M21.05 19.6399C20.61 19.1999 19.44 18.04 18.99 17.58L17.62 16.2099C17.6 16.1899 17.59 16.17 17.57 16.15L20.73 12.99C20.97 12.75 21.07 12.41 21 12.07C20.93 11.7299 20.7 11.47 20.38 11.34L16.9 10.01L14.03 4.92995C13.41 3.82995 12.43 3.08995 11.4 2.94995C10.62 2.83995 9.87996 3.08995 9.31996 3.64995L3.65996 9.31995C3.09996 9.87995 2.84996 10.62 2.95996 11.4C3.09996 12.4299 3.83996 13.41 4.93996 14.03L10.02 16.9L11.35 20.3799C11.47 20.6999 11.74 20.93 12.08 21C12.15 21.01 12.22 21.02 12.29 21.02C12.55 21.02 12.81 20.92 13 20.7299L16.16 17.57C16.16 17.57 16.2 17.6 16.22 17.62L17.59 18.99C18.04 19.44 19.21 20.6199 19.65 21.0499C20.09 21.0599 20.53 21.08 21.04 21.03C21.09 20.52 21.07 20.08 21.06 19.6399H21.05ZM12.67 18.2299L11.76 15.85C11.68 15.63 11.52 15.45 11.32 15.34L5.92996 12.3C5.26996 11.93 4.98996 11.44 4.94996 11.14C4.92996 10.98 4.96996 10.8599 5.07996 10.7399L10.75 5.06995C10.84 4.97995 10.94 4.92995 11.06 4.92995C11.09 4.92995 11.11 4.92995 11.14 4.92995C11.44 4.96995 11.93 5.24995 12.3 5.90995L15.34 11.3C15.45 11.5 15.64 11.66 15.85 11.74L18.23 12.65L12.67 18.2099V18.2299Z" fill="#E08906"/>
</svg>
